<?xml version="1.0" encoding="UTF-8" standalone="no"?>
<!-- Created with Inkscape (http://www.inkscape.org/) -->
<svg
   xmlns:svg="http://www.w3.org/2000/svg"
   xmlns="http://www.w3.org/2000/svg"
   version="1.0"
   width="276.77802"
   height="255.11501"
   id="svg2">
  <defs
     id="defs4" />
  <g
     id="g12">
    <path
       d="M 225.172,152.168 C 225.172,125.102 214.418,99.149 195.281,80.012 C 176.145,60.875 150.192,50.121 123.125,50.121 C 96.0586,50.121 70.1055,60.875 50.9687,80.012 C 31.832,99.149 21.0781,125.102 21.0781,152.168 C 21.0781,179.234 31.832,205.188 50.9687,224.324 C 70.1055,243.461 96.0586,254.215 123.125,254.215 C 150.192,254.215 176.145,243.461 195.281,224.324 C 214.418,205.188 225.172,179.234 225.172,152.168"
       id="path14"
       style="fill:#dbdbdb;fill-rule:evenodd;stroke:none" />
    <path
       d="M 225.172,152.168 C 225.172,125.102 214.418,99.149 195.281,80.012 C 176.145,60.875 150.192,50.121 123.125,50.121 C 96.0586,50.121 70.1055,60.875 50.9687,80.012 C 31.832,99.149 21.0781,125.102 21.0781,152.168 C 21.0781,179.234 31.832,205.188 50.9687,224.324 C 70.1055,243.461 96.0586,254.215 123.125,254.215 C 150.192,254.215 176.145,243.461 195.281,224.324 C 214.418,205.188 225.172,179.234 225.172,152.168 z"
       id="path16"
       style="fill:none;stroke:#000000;stroke-width:1.79999995;stroke-linejoin:round" />
    <path
       d="M 225.172,152.168 C 225.172,144.047 214.418,136.262 195.281,130.52 C 176.145,124.777 150.192,121.555 123.125,121.555 C 96.0586,121.555 70.1055,124.777 50.9687,130.52 C 31.832,136.262 21.0781,144.047 21.0781,152.168"
       id="path18"
       style="fill:none;stroke:#000000;stroke-width:1.79999995;stroke-linecap:round;stroke-linejoin:round;stroke-dasharray:6, 3" />
    <path
       d="M 21.0781,152.168 C 21.0781,160.289 31.832,168.074 50.9687,173.816 C 70.1055,179.555 96.0586,182.781 123.125,182.781 C 150.192,182.781 176.145,179.555 195.281,173.816 C 214.418,168.074 225.172,160.289 225.172,152.168"
       id="path20"
       style="fill:none;stroke:#000000;stroke-width:1.79999995;stroke-linecap:round;stroke-linejoin:round;stroke-dasharray:6, 3" />
    <path
       d="M 123.125,152.168 L 195.281,80.008"
       id="path22"
       style="fill:none;stroke:#000000;stroke-width:1.79999995;stroke-linecap:round;stroke-linejoin:round" />
    <path
       d="M 192.223,87.402 L 195.281,80.008 L 187.891,83.07"
       id="path24"
       style="fill:#000000;fill-rule:evenodd;stroke:none" />
    <path
       d="M 192.223,87.402 L 195.281,80.008 L 187.891,83.07 L 192.223,87.402 z"
       id="path26"
       style="fill:none;stroke:#000000;stroke-width:1.79999995;stroke-linecap:round;stroke-linejoin:round" />
    <path
       d="M 126.188,144.777 L 123.125,152.168 L 130.516,149.106"
       id="path28"
       style="fill:#000000;fill-rule:evenodd;stroke:none" />
    <path
       d="M 126.188,144.777 L 123.125,152.168 L 130.516,149.106 L 126.188,144.777 z"
       id="path30"
       style="fill:none;stroke:#000000;stroke-width:1.79999995;stroke-linecap:round;stroke-linejoin:round" />
    <path
       d="M 154.762,108.449 C 154.672,108.895 154.492,109.582 154.492,109.734 C 154.492,110.27 154.914,110.539 155.36,110.539 C 155.719,110.539 156.258,110.301 156.465,109.703 C 156.528,109.582 157.543,105.52 157.66,104.981 C 157.903,103.996 158.438,101.902 158.617,101.094 C 158.738,100.707 159.574,99.301 160.293,98.645 C 160.531,98.434 161.399,97.656 162.684,97.656 C 163.461,97.656 163.91,98.016 163.938,98.016 C 163.043,98.168 162.383,98.883 162.383,99.66 C 162.383,100.141 162.715,100.707 163.52,100.707 C 164.328,100.707 165.164,100.02 165.164,98.941 C 165.164,97.899 164.207,97 162.684,97 C 160.742,97 159.426,98.465 158.86,99.301 C 158.617,97.957 157.543,97 156.137,97 C 154.762,97 154.195,98.168 153.926,98.703 C 153.387,99.719 153,101.512 153,101.602 C 153,101.902 153.297,101.902 153.36,101.902 C 153.656,101.902 153.688,101.871 153.867,101.215 C 154.375,99.094 154.973,97.656 156.047,97.656 C 156.555,97.656 156.977,97.899 156.977,99.031 C 156.977,99.66 156.887,99.988 156.496,101.543 L 154.762,108.449 z"
       id="path32"
       style="fill:#000000;fill-rule:evenodd;stroke:none" />
    <path
       d="M 225.172,152.168 L 255.785,152.168"
       id="path34"
       style="fill:none;stroke:#000000;stroke-width:1.79999995;stroke-linecap:round;stroke-linejoin:round" />
    <path
       d="M 248.395,155.23 L 255.785,152.168 L 248.395,149.106"
       id="path36"
       style="fill:#000000;fill-rule:evenodd;stroke:none" />
    <path
       d="M 248.395,155.23 L 255.785,152.168 L 248.395,149.106 L 248.395,155.23 z"
       id="path38"
       style="fill:none;stroke:#000000;stroke-width:1.79999995;stroke-linecap:round;stroke-linejoin:round" />
    <path
       d="M 123.125,152.168 L 225.172,152.168"
       id="path40"
       style="fill:none;stroke:#000000;stroke-width:1.79999995;stroke-linecap:round;stroke-linejoin:round;stroke-dasharray:6, 3" />
    <path
       d="M 276.66,143.824 C 276.778,143.406 276.778,143.344 276.778,143.137 C 276.778,142.598 276.36,142.328 275.91,142.328 C 275.613,142.328 275.133,142.508 274.863,142.957 C 274.805,143.106 274.567,144.031 274.445,144.57 C 274.238,145.348 274.028,146.156 273.848,146.961 L 272.504,152.34 C 272.383,152.789 271.098,154.883 269.125,154.883 C 267.602,154.883 267.274,153.566 267.274,152.461 C 267.274,151.086 267.781,149.234 268.797,146.602 C 269.278,145.379 269.395,145.051 269.395,144.453 C 269.395,143.106 268.438,142 266.945,142 C 264.106,142 263,146.336 263,146.602 C 263,146.902 263.297,146.902 263.36,146.902 C 263.656,146.902 263.688,146.844 263.836,146.363 C 264.645,143.555 265.84,142.656 266.856,142.656 C 267.094,142.656 267.602,142.656 267.602,143.613 C 267.602,144.363 267.305,145.141 267.094,145.707 C 265.899,148.875 265.36,150.578 265.36,151.984 C 265.36,154.645 267.242,155.539 269.008,155.539 C 270.172,155.539 271.188,155.031 272.028,154.195 C 271.637,155.75 271.278,157.215 270.082,158.797 C 269.305,159.813 268.172,160.68 266.797,160.68 C 266.375,160.68 265.031,160.59 264.524,159.426 C 265.004,159.426 265.391,159.426 265.809,159.066 C 266.11,158.797 266.406,158.41 266.406,157.84 C 266.406,156.914 265.602,156.797 265.301,156.797 C 264.613,156.797 263.629,157.273 263.629,158.738 C 263.629,160.23 264.942,161.34 266.797,161.34 C 269.875,161.34 272.953,158.617 273.789,155.242 L 276.66,143.824 z"
       id="path42"
       style="fill:#000000;fill-rule:evenodd;stroke:none" />
    <path
       d="M 50.9687,173.816 L 7.67187,186.805"
       id="path44"
       style="fill:none;stroke:#000000;stroke-width:1.79999995;stroke-linecap:round;stroke-linejoin:round" />
    <path
       d="M 13.875,181.746 L 7.67187,186.805 L 15.6328,187.613"
       id="path46"
       style="fill:#000000;fill-rule:evenodd;stroke:none" />
    <path
       d="M 13.875,181.746 L 7.67187,186.805 L 15.6328,187.613 L 13.875,181.746 z"
       id="path48"
       style="fill:none;stroke:#000000;stroke-width:1.79999995;stroke-linecap:round;stroke-linejoin:round" />
    <path
       d="M 123.125,152.168 L 50.9687,173.816"
       id="path50"
       style="fill:none;stroke:#000000;stroke-width:1.79999995;stroke-linecap:round;stroke-linejoin:round;stroke-dasharray:6, 3" />
    <path
       d="M 9.11719,196.184 C 9.29301,195.406 9.98051,192.656 12.0742,192.656 C 12.2226,192.656 12.9414,192.656 13.5703,193.047 C 12.7305,193.195 12.1328,193.941 12.1328,194.66 C 12.1328,195.141 12.4609,195.707 13.2695,195.707 C 13.9258,195.707 14.8828,195.168 14.8828,193.973 C 14.8828,192.418 13.1211,192 12.1055,192 C 10.3711,192 9.32421,193.586 8.96484,194.273 C 8.21875,192.301 6.60547,192 5.73828,192 C 2.6289,192 0.925782,195.855 0.925782,196.602 C 0.925782,196.902 1.22656,196.902 1.28515,196.902 C 1.52343,196.902 1.61328,196.844 1.67187,196.574 C 2.6914,193.406 4.66015,192.656 5.67969,192.656 C 6.24609,192.656 7.29297,192.926 7.29297,194.66 C 7.29297,195.586 6.78515,197.59 5.67969,201.773 C 5.19922,203.625 4.15234,204.883 2.83984,204.883 C 2.66015,204.883 1.97265,204.883 1.34375,204.492 C 2.08984,204.344 2.75,203.715 2.75,202.879 C 2.75,202.074 2.08984,201.832 1.64453,201.832 C 0.746092,201.832 0,202.609 0,203.566 C 0,204.941 1.49219,205.539 2.80859,205.539 C 4.78125,205.539 5.85937,203.449 5.94922,203.27 C 6.30469,204.375 7.38281,205.539 9.17581,205.539 C 12.2539,205.539 13.957,201.684 13.957,200.938 C 13.957,200.637 13.6875,200.637 13.5976,200.637 C 13.3281,200.637 13.2695,200.758 13.2109,200.969 C 12.2226,204.164 10.1914,204.883 9.23441,204.883 C 8.07031,204.883 7.58984,203.926 7.58984,202.91 C 7.58984,202.254 7.76953,201.594 8.09765,200.281 L 9.11719,196.184 z"
       id="path52"
       style="fill:#000000;fill-rule:evenodd;stroke:none" />
    <path
       d="M 123.125,50.121 L 123.125,19.508"
       id="path54"
       style="fill:none;stroke:#000000;stroke-width:1.79999995;stroke-linecap:round;stroke-linejoin:round" />
    <path
       d="M 126.188,26.899 L 123.125,19.508 L 120.063,26.899"
       id="path56"
       style="fill:#000000;fill-rule:evenodd;stroke:none" />
    <path
       d="M 126.188,26.899 L 123.125,19.508 L 120.063,26.899 L 126.188,26.899 z"
       id="path58"
       style="fill:none;stroke:#000000;stroke-width:1.79999995;stroke-linecap:round;stroke-linejoin:round" />
    <path
       d="M 123.125,152.168 L 123.125,50.121"
       id="path60"
       style="fill:none;stroke:#000000;stroke-width:1.79999995;stroke-linecap:round;stroke-linejoin:round;stroke-dasharray:6, 3" />
    <path
       d="M 119.11,10.731 C 120.723,8.996 121.59,8.25 122.664,7.32401 C 122.664,7.293 124.52,5.711 125.594,4.633 C 128.434,1.856 129.09,0.417999 129.09,0.300995 C 129.09,0 128.821,0 128.762,0 C 128.551,0 128.461,0.0590057 128.313,0.328003 C 127.418,1.76599 126.789,2.242 126.071,2.242 C 125.356,2.242 124.996,1.793 124.547,1.285 C 123.981,0.597992 123.473,0 122.485,0 C 120.242,0 118.867,2.78101 118.867,3.40601 C 118.867,3.55901 118.957,3.73799 119.227,3.73799 C 119.496,3.73799 119.555,3.586 119.617,3.40601 C 120.184,2.03101 121.918,2.004 122.156,2.004 C 122.785,2.004 123.352,2.211 124.039,2.453 C 125.235,2.899 125.563,2.899 126.34,2.899 C 125.266,4.18401 122.754,6.336 122.188,6.81599 C 120.692,8.16 120.66,8.19099 119.496,9.32401 C 117.465,11.328 116.418,13.031 116.418,13.242 C 116.418,13.539 116.719,13.539 116.778,13.539 C 117.016,13.539 117.074,13.481 117.254,13.152 C 117.942,12.106 118.84,11.297 119.797,11.297 C 120.485,11.297 120.781,11.566 121.528,12.434 C 122.035,13.063 122.574,13.539 123.442,13.539 C 126.403,13.539 128.133,9.742 128.133,8.938 C 128.133,8.789 128.016,8.63699 127.778,8.63699 C 127.508,8.63699 127.445,8.81599 127.356,9.02699 C 126.668,10.969 124.758,11.539 123.77,11.539 C 123.172,11.539 122.633,11.359 122.008,11.149 C 120.992,10.762 120.543,10.641 119.914,10.641 C 119.856,10.641 119.375,10.641 119.11,10.731 z"
       id="path62"
       style="fill:#000000;fill-rule:evenodd;stroke:none" />
  </g>
</svg>
